<svg version="1.1" id="Layer_1" xmlns="http://www.w3.org/2000/svg" x="0" y="0" viewBox="0 0 104.1 29.3" xml:space="preserve">
  <style>
    .st0{fill:#fff}
  </style>
  <path id="Path_39" class="st0" d="M61.5 7.6c-.7 0-1.4-.3-2-.8-.8-.8-.7-1.6-.7-3s0-2.3.7-3c.5-.5 1.2-.8 2-.8 1.4-.1 2.5 1 2.7 2.3H63c-.1-.7-.8-1.3-1.5-1.3-.4 0-.8.1-1.1.5-.3.5-.4.9-.4 2.4s.1 1.9.5 2.3c.3.3.7.5 1.1.5.8 0 1.4-.5 1.5-1.3h1.2c-.3 1.3-1.4 2.3-2.8 2.2zM69 7c-.4.4-1 .6-1.6.6-.6 0-1.2-.2-1.6-.6-.5-.6-.7-1.4-.6-2.1-.1-.7.1-1.5.6-2.1.4-.4 1-.6 1.6-.6.6 0 1.2.2 1.6.6.5.6.7 1.3.6 2.1.1.8-.1 1.5-.6 2.1zm-.8-3.6c-.2-.2-.5-.3-.8-.3-.3 0-.6.1-.8.3-.3.4-.4.9-.4 1.5-.1.5.1 1 .4 1.5.2.2.5.3.8.3.3 0 .6-.1.8-.3.3-.4.4-.9.4-1.5 0-.5-.1-1-.4-1.5zm9.2 4.2V4.3c0-.8-.5-1.2-1.1-1.2-.6 0-1.1.4-1.1 1v3.4h-1.1V4.3c0-.8-.5-1.2-1.1-1.2-.6 0-1.1.4-1.1 1V7.5h-1.1V2.2H72v.6c.4-.4.9-.6 1.4-.6.6 0 1.2.3 1.5.8.4-.5 1-.8 1.7-.8.5 0 1 .2 1.4.5.4.4.6 1 .6 1.5v3.4h-1.2zm6.3-.4c-.4.3-.8.5-1.3.5s-1.1-.2-1.4-.6v2.7h-1.1V2.2H81v.6c.3-.4.9-.7 1.4-.6.5 0 .9.2 1.3.5.5.6.7 1.5.6 2.3.1.8-.1 1.5-.6 2.2zm-1.6-4.1c-1 0-1.1.8-1.1 1.8s.2 1.8 1.1 1.8 1.1-.8 1.1-1.8-.1-1.8-1.1-1.8zm6.8 4.5V7c-.7.8-1.9.8-2.7.1-.4-.4-.6-1-.6-1.5V2.2h1.1v3.2c0 .8.5 1.2 1.1 1.2.6 0 1.1-.4 1.1-1V2.2H90v5.3l-1.1.1zm4.1 0c-.8.1-1.4-.5-1.5-1.3V3.1h-.6v-.8h.6V.7h1.1v1.6h1v.8h-1V6c0 .3.2.6.5.6h.7v.9l-.8.1zm2.6-2.4c-.1.7.4 1.4 1.2 1.5h.2c.5 0 1-.2 1.3-.6l.7.7c-.5.6-1.3.9-2 .8-1.3 0-2.4-.7-2.4-2.7 0-1.7.9-2.7 2.3-2.7 1.3 0 2.3 1 2.3 2.3v.8l-3.6-.1zm2.2-1.5c-.3-.6-1-.8-1.6-.5-.2.1-.4.3-.5.5-.1.2-.1.5-.2.7H98c0-.2 0-.4-.2-.7zm5.4-.2c-.2-.2-.5-.4-.8-.4-.6 0-1.1.5-1.1 1.2V7.6h-1.1V2.2h1.1v.6c.3-.4.9-.7 1.4-.7.5 0 .9.2 1.3.5.1.1-.8.9-.8.9zM63.3 18.3V15h-3v3.3h-1.2v-7.5h1.1V14h3v-3.2h1.1v7.5h-1zm2.8-6.4v-1.1h1.1v1.1h-1.1zm0 6.4V13h1.1v5.3h-1.1zm4.3 0c-.8.1-1.6-.2-2.2-.8l.7-.7c.4.4 1 .6 1.5.6.7 0 1.2-.3 1.2-.8 0-.4-.2-.6-.7-.6H70c-1-.1-1.6-.6-1.6-1.5 0-1.1.9-1.6 2-1.6.7-.1 1.4.2 2 .6l-.7.7c-.4-.3-.8-.4-1.3-.4-.7 0-1 .3-1 .7 0 .3.2.6.8.6l.9.1c1 .1 1.6.6 1.6 1.5-.1 1.1-1 1.6-2.3 1.6zm4.9 0c-.8.1-1.4-.5-1.5-1.3v-3.1h-.6v-.8h.6v-1.7h1.1V13h1v.8h-1v2.9c0 .3.2.6.5.6h.7v.9l-.8.1zm5.3-.6c-.4.4-1 .6-1.6.6-.6 0-1.2-.2-1.6-.6-.5-.6-.7-1.4-.6-2.1-.1-.7.1-1.5.6-2.1.4-.4 1-.6 1.6-.6.6 0 1.2.2 1.6.6.5.6.7 1.3.6 2.1.1.8-.1 1.5-.6 2.1zm-.8-3.5c-.2-.2-.5-.3-.8-.3-.3 0-.6.1-.8.3-.3.4-.4.9-.4 1.5-.1.5.1 1 .4 1.5.2.2.5.3.8.3.3 0 .6-.1.8-.3.3-.4.4-.9.4-1.5s-.1-1.1-.4-1.5zm5.7 0c-.2-.2-.5-.4-.8-.4-.6 0-1.1.5-1.1 1.2V18.3h-1.1V13h1.1v.6c.3-.4.9-.7 1.4-.7.5 0 .9.2 1.3.5l-.8.8z"/>
  <path id="Path_38" d="M13.3 22.6c0 3.6-2.9 6.6-6.6 6.7-3.1 0-6.8-1.5-6.8-6.8V6.6C-.1 3.1 2.6.1 6.2 0h.6c3.6-.1 6.6 2.8 6.6 6.4v2.1H9.2V7.1c0-1.6-1-3-2.5-3-2.1 0-2.5 1.4-2.5 3.3v14.7c0 1.7.7 2.9 2.5 2.9 1.1 0 2.6-.7 2.6-2.9v-1.4h4.1l-.1 1.9zM16.7.2h4.1v12.3h5.1V.2H30V29h-4.1V16.2h-5.1V29h-4.1V.2zm17.2 0h4l5.3 15.3h.1L48.6.2h4V29h-4.1V11.5h-.1l-4.1 12.4h-2.1l-4-12.4h-.1V29H34V.2h-.1z" fill="#ec1e31"/>
  <path id="Path_40" class="st0" d="M88.7 19.4c-.1.2-.2.5-.4.7-.3.3-.7.4-1.1.4h-.5v-1h.3c.5 0 .6-.2.8-.6l.3-.8-1.9-5h1.1l1.3 3.7 1.3-3.7h1.2l-2.4 6.3zM64.6 29v-5l-1.7 3.6H62L60.2 24v5h-1.1v-7.5h1.1l2.2 4.6 2.1-4.6h1.1V29h-1zm6 0v-.6c-.7.8-1.9.8-2.7.1-.4-.4-.6-1-.6-1.5v-3.4h1.1v3.2c0 .8.5 1.2 1.1 1.2.6 0 1.1-.4 1.1-1V23.6h1.1v5.3l-1.1.1zm4.3.1c-.8.1-1.6-.2-2.2-.8l.7-.7c.4.4 1 .6 1.5.6.7 0 1.2-.3 1.2-.8 0-.4-.2-.6-.7-.6l-.9-.1c-1-.1-1.6-.6-1.6-1.5 0-1.1.9-1.6 2-1.6.7-.1 1.4.2 2 .6l-.6.8c-.4-.3-.8-.4-1.3-.4-.7 0-1 .3-1 .7 0 .3.2.6.8.6l.9.1c1 .1 1.6.6 1.6 1.5-.2 1-1.1 1.6-2.4 1.6zm4.2-2.4c-.1.7.4 1.4 1.2 1.5h.2c.5 0 1-.2 1.3-.6l.7.7c-.5.6-1.3.9-2 .8-1.3 0-2.4-.7-2.4-2.7 0-1.7.9-2.7 2.3-2.7 1.3 0 2.3 1 2.3 2.3v.8l-3.6-.1zm2.2-1.5c-.3-.6-1-.8-1.6-.5-.2.1-.4.3-.5.5-.1.2-.1.5-.2.7h2.4c0-.2 0-.5-.1-.7zM87 29v-.6c-.7.8-1.9.8-2.7.1-.4-.4-.6-1-.6-1.5v-3.4h1.1v3.2c0 .8.5 1.2 1.1 1.2.6 0 1.1-.4 1.1-1V23.6h1v5.3l-1 .1zm9.1 0v-3.2c0-.8-.5-1.2-1.1-1.2-.6 0-1.1.4-1.1 1V29h-1.1v-3.2c0-.8-.5-1.2-1.1-1.2-.6 0-1.1.4-1.1 1V29h-1.1v-5.3h1.1v.6c.4-.4.9-.6 1.4-.6.6 0 1.2.3 1.5.8.4-.5 1-.8 1.7-.8.5 0 1 .2 1.4.5.4.4.6 1 .6 1.5v3.4l-1.1-.1z"/>
</svg>
